<?xml version="1.0" encoding="utf-8"?>
<!-- Generator: Adobe Illustrator 16.0.0, SVG Export Plug-In . SVG Version: 6.00 Build 0)  -->
<!DOCTYPE svg PUBLIC "-//W3C//DTD SVG 1.1//EN" "http://www.w3.org/Graphics/SVG/1.1/DTD/svg11.dtd">
<svg version="1.1" id="Layer_1" xmlns="http://www.w3.org/2000/svg" xmlns:xlink="http://www.w3.org/1999/xlink" x="0px" y="0px"
	 width="411px" height="238.333px" viewBox="0 0 411 238.333" enable-background="new 0 0 411 238.333" xml:space="preserve">
<g>
	<defs>
		<rect id="SVGID_1_" x="4.758" y="7.436" width="400" height="225.625"/>
	</defs>
	<clipPath id="SVGID_2_">
		<use xlink:href="#SVGID_1_"  overflow="visible"/>
	</clipPath>
	<rect x="48.383" y="9.436" clip-path="url(#SVGID_2_)" fill="#FFFFFF" width="312.75" height="27"/>
	
		<rect x="48.258" y="9.561" clip-path="url(#SVGID_2_)" fill="none" stroke="#000000" stroke-linecap="round" stroke-linejoin="round" stroke-miterlimit="10" width="313" height="27"/>
	<g clip-path="url(#SVGID_2_)">
		<path d="M112.552,20.994c0.443,0.344,0.71,0.936,0.8,1.775h-1.025c-0.062-0.387-0.205-0.708-0.428-0.964s-0.58-0.384-1.072-0.384
			c-0.672,0-1.152,0.328-1.441,0.983c-0.188,0.425-0.281,0.95-0.281,1.574c0,0.628,0.133,1.156,0.398,1.586
			c0.266,0.429,0.684,0.644,1.254,0.644c0.438,0,0.784-0.133,1.04-0.399s0.433-0.632,0.53-1.095h1.025
			c-0.117,0.832-0.41,1.44-0.879,1.825s-1.068,0.577-1.799,0.577c-0.82,0-1.475-0.3-1.963-0.899s-0.732-1.349-0.732-2.247
			c0-1.102,0.268-1.959,0.803-2.572s1.217-0.92,2.045-0.92C111.533,20.479,112.108,20.65,112.552,20.994z"/>
		<path d="M117.74,18.299h1.055v3.211c0.25-0.316,0.475-0.539,0.674-0.668c0.34-0.223,0.764-0.334,1.271-0.334
			c0.91,0,1.527,0.318,1.852,0.955c0.176,0.348,0.264,0.83,0.264,1.447v4.025h-1.084V22.98c0-0.461-0.059-0.799-0.176-1.014
			c-0.191-0.344-0.551-0.516-1.078-0.516c-0.438,0-0.834,0.15-1.189,0.451s-0.533,0.869-0.533,1.705v3.328h-1.055V18.299z"/>
		<path d="M131.111,23.138c0.242-0.031,0.404-0.133,0.486-0.304c0.047-0.095,0.07-0.229,0.07-0.406c0-0.36-0.128-0.622-0.383-0.785
			c-0.255-0.163-0.621-0.244-1.097-0.244c-0.55,0-0.939,0.149-1.169,0.447c-0.129,0.165-0.212,0.41-0.251,0.736h-0.984
			c0.02-0.775,0.27-1.315,0.752-1.619s1.041-0.455,1.677-0.455c0.737,0,1.336,0.141,1.797,0.422
			c0.457,0.281,0.685,0.719,0.685,1.312v3.615c0,0.109,0.022,0.197,0.067,0.264s0.14,0.1,0.284,0.1c0.047,0,0.1-0.003,0.158-0.009
			s0.121-0.015,0.188-0.026v0.779c-0.164,0.047-0.289,0.076-0.375,0.088s-0.203,0.018-0.352,0.018c-0.363,0-0.627-0.129-0.791-0.387
			c-0.086-0.137-0.146-0.33-0.182-0.58c-0.215,0.281-0.523,0.525-0.926,0.732s-0.846,0.311-1.33,0.311
			c-0.582,0-1.058-0.177-1.427-0.529c-0.369-0.354-0.554-0.795-0.554-1.326c0-0.581,0.182-1.031,0.545-1.352
			c0.363-0.319,0.84-0.517,1.43-0.591L131.111,23.138z M128.891,25.987c0.223,0.175,0.486,0.263,0.791,0.263
			c0.371,0,0.73-0.086,1.078-0.258c0.586-0.284,0.879-0.75,0.879-1.397v-0.849c-0.129,0.082-0.294,0.151-0.497,0.206
			s-0.401,0.094-0.597,0.117l-0.637,0.082c-0.382,0.051-0.669,0.131-0.862,0.239c-0.326,0.184-0.489,0.476-0.489,0.877
			C128.557,25.572,128.668,25.812,128.891,25.987z"/>
		<path d="M137.785,20.66h1.002v1.084c0.082-0.211,0.283-0.468,0.604-0.771s0.689-0.454,1.107-0.454c0.02,0,0.053,0.002,0.1,0.006
			s0.127,0.012,0.24,0.023v1.113c-0.062-0.012-0.12-0.02-0.173-0.023s-0.11-0.006-0.173-0.006c-0.531,0-0.939,0.171-1.225,0.513
			s-0.428,0.735-0.428,1.181v3.609h-1.055V20.66z"/>
		<path d="M150.283,18.328v1.304l1.278-0.44l0.233,0.646l-1.277,0.415l0.791,1.104l-0.58,0.416l-0.765-1.148l-0.776,1.148
			l-0.598-0.416l0.803-1.104l-1.289-0.415l0.235-0.65l1.265,0.457v-1.316H150.283z"/>
		<path d="M157.051,24.967c0.032,0.352,0.122,0.621,0.269,0.809c0.271,0.34,0.742,0.51,1.412,0.51c0.398,0,0.749-0.085,1.052-0.255
			s0.455-0.433,0.455-0.788c0-0.27-0.121-0.475-0.363-0.615c-0.155-0.086-0.46-0.186-0.917-0.299l-0.852-0.211
			c-0.544-0.133-0.945-0.281-1.203-0.445c-0.46-0.285-0.691-0.68-0.691-1.184c0-0.594,0.217-1.074,0.65-1.441
			c0.433-0.367,1.016-0.551,1.749-0.551c0.958,0,1.649,0.277,2.072,0.832c0.265,0.352,0.394,0.73,0.386,1.137h-0.996
			c-0.02-0.237-0.106-0.452-0.258-0.646c-0.248-0.276-0.678-0.414-1.29-0.414c-0.408,0-0.717,0.076-0.927,0.228
			c-0.21,0.152-0.315,0.353-0.315,0.602c0,0.272,0.138,0.49,0.414,0.654c0.159,0.097,0.394,0.183,0.704,0.257l0.71,0.17
			c0.772,0.184,1.29,0.361,1.552,0.533c0.41,0.27,0.615,0.693,0.615,1.271c0,0.559-0.215,1.041-0.644,1.447
			c-0.429,0.406-1.083,0.609-1.961,0.609c-0.945,0-1.614-0.212-2.008-0.636s-0.604-0.948-0.632-1.573H157.051z"/>
		<path d="M165.969,18.908h1.066v1.752h1.002v0.861h-1.002v4.096c0,0.219,0.074,0.365,0.223,0.439
			c0.082,0.043,0.219,0.064,0.41,0.064c0.051,0,0.105-0.001,0.164-0.004s0.127-0.009,0.205-0.02v0.838
			c-0.121,0.035-0.247,0.061-0.378,0.076s-0.272,0.023-0.425,0.023c-0.492,0-0.826-0.126-1.002-0.378s-0.264-0.579-0.264-0.981
			v-4.154h-0.85V20.66h0.85V18.908z"/>
		<path d="M172.455,20.66h1.002v1.084c0.082-0.211,0.283-0.468,0.604-0.771s0.689-0.454,1.107-0.454c0.02,0,0.053,0.002,0.1,0.006
			s0.127,0.012,0.24,0.023v1.113c-0.062-0.012-0.12-0.02-0.173-0.023s-0.11-0.006-0.173-0.006c-0.531,0-0.939,0.171-1.225,0.513
			s-0.428,0.735-0.428,1.181v3.609h-1.055V20.66z"/>
		<path d="M188.967,22.119v0.984h-6.111v-0.984H188.967z M188.967,24.633v1.002h-6.111v-1.002H188.967z"/>
		<path d="M197.527,18.328l-0.169,3.445h-0.705l-0.181-3.445H197.527z M199.543,18.328l-0.176,3.445h-0.709l-0.182-3.445H199.543z"
			/>
		<path d="M204.359,18.299h1.055v3.211c0.25-0.316,0.475-0.539,0.674-0.668c0.34-0.223,0.764-0.334,1.271-0.334
			c0.91,0,1.527,0.318,1.852,0.955c0.176,0.348,0.264,0.83,0.264,1.447v4.025h-1.084V22.98c0-0.461-0.059-0.799-0.176-1.014
			c-0.191-0.344-0.551-0.516-1.078-0.516c-0.438,0-0.834,0.15-1.189,0.451s-0.533,0.869-0.533,1.705v3.328h-1.055V18.299z"/>
		<path d="M218.243,20.833c0.415,0.209,0.731,0.479,0.949,0.812c0.21,0.316,0.35,0.686,0.419,1.107
			c0.062,0.289,0.094,0.75,0.094,1.383h-4.564c0.02,0.639,0.168,1.15,0.447,1.536s0.711,0.579,1.297,0.579
			c0.547,0,0.982-0.183,1.309-0.548c0.182-0.211,0.311-0.457,0.387-0.735h1.037c-0.027,0.23-0.118,0.487-0.272,0.771
			s-0.327,0.515-0.517,0.694c-0.318,0.312-0.711,0.523-1.18,0.633c-0.252,0.062-0.537,0.094-0.855,0.094
			c-0.776,0-1.434-0.284-1.974-0.853s-0.81-1.364-0.81-2.388c0-1.008,0.271-1.826,0.815-2.455s1.254-0.943,2.132-0.943
			C217.398,20.52,217.828,20.624,218.243,20.833z M218.621,23.297c-0.043-0.457-0.142-0.822-0.297-1.096
			c-0.286-0.508-0.765-0.762-1.435-0.762c-0.48,0-0.884,0.175-1.208,0.524c-0.326,0.35-0.498,0.794-0.518,1.333H218.621z"/>
		<path d="M224.404,18.328h1.055v8.607h-1.055V18.328z"/>
		<path d="M230.404,18.328h1.055v8.607h-1.055V18.328z"/>
		<path d="M240.922,21.286c0.555,0.539,0.832,1.331,0.832,2.377c0,1.011-0.244,1.847-0.733,2.506
			c-0.488,0.659-1.247,0.989-2.274,0.989c-0.857,0-1.538-0.292-2.043-0.875c-0.504-0.584-0.756-1.367-0.756-2.351
			c0-1.054,0.266-1.893,0.797-2.518c0.531-0.624,1.245-0.937,2.141-0.937C239.688,20.479,240.367,20.748,240.922,21.286z
			 M240.268,25.457c0.256-0.528,0.385-1.117,0.385-1.765c0-0.585-0.093-1.061-0.278-1.428c-0.294-0.577-0.8-0.866-1.518-0.866
			c-0.638,0-1.101,0.246-1.391,0.737c-0.29,0.492-0.435,1.085-0.435,1.779c0,0.667,0.145,1.223,0.435,1.668
			c0.29,0.444,0.749,0.667,1.379,0.667C239.536,26.25,240.01,25.985,240.268,25.457z"/>
		<path d="M253.54,20.66l1.207,4.945l1.225-4.945h1.184l1.23,4.916l1.283-4.916h1.055l-1.822,6.275h-1.096l-1.277-4.857
			l-1.236,4.857h-1.096l-1.811-6.275H253.54z"/>
		<path d="M269.598,21.286c0.555,0.539,0.832,1.331,0.832,2.377c0,1.011-0.244,1.847-0.733,2.506
			c-0.488,0.659-1.247,0.989-2.274,0.989c-0.857,0-1.538-0.292-2.043-0.875c-0.504-0.584-0.756-1.367-0.756-2.351
			c0-1.054,0.266-1.893,0.797-2.518c0.531-0.624,1.245-0.937,2.141-0.937C268.364,20.479,269.043,20.748,269.598,21.286z
			 M268.943,25.457c0.256-0.528,0.385-1.117,0.385-1.765c0-0.585-0.093-1.061-0.278-1.428c-0.294-0.577-0.8-0.866-1.518-0.866
			c-0.638,0-1.101,0.246-1.391,0.737c-0.29,0.492-0.435,1.085-0.435,1.779c0,0.667,0.145,1.223,0.435,1.668
			c0.29,0.444,0.749,0.667,1.379,0.667C268.212,26.25,268.686,25.985,268.943,25.457z"/>
		<path d="M275.088,20.66h1.002v1.084c0.082-0.211,0.283-0.468,0.604-0.771s0.689-0.454,1.107-0.454c0.02,0,0.053,0.002,0.1,0.006
			s0.127,0.012,0.24,0.023v1.113c-0.062-0.012-0.12-0.02-0.173-0.023s-0.11-0.006-0.173-0.006c-0.531,0-0.939,0.171-1.225,0.513
			s-0.428,0.735-0.428,1.181v3.609h-1.055V20.66z"/>
		<path d="M282.418,18.328h1.055v8.607h-1.055V18.328z"/>
		<path d="M291.836,20.854c0.188,0.117,0.399,0.322,0.637,0.615v-3.17h1.014v8.637h-0.949v-0.873
			c-0.245,0.387-0.535,0.666-0.869,0.838c-0.336,0.172-0.719,0.258-1.15,0.258c-0.697,0-1.3-0.294-1.81-0.882
			s-0.765-1.37-0.765-2.347c0-0.914,0.232-1.706,0.697-2.376s1.129-1.005,1.994-1.005C291.113,20.549,291.514,20.65,291.836,20.854z
			 M289.482,25.559c0.283,0.453,0.738,0.68,1.363,0.68c0.486,0,0.886-0.21,1.199-0.63c0.312-0.42,0.469-1.022,0.469-1.808
			c0-0.793-0.161-1.38-0.484-1.761c-0.322-0.381-0.721-0.571-1.195-0.571c-0.527,0-0.957,0.203-1.285,0.609
			s-0.492,1.004-0.492,1.793C289.057,24.543,289.198,25.105,289.482,25.559z"/>
		<path d="M299.158,18.328l-0.169,3.445h-0.705l-0.181-3.445H299.158z M301.174,18.328l-0.176,3.445h-0.709l-0.182-3.445H301.174z"
			/>
	</g>
	<rect x="6.758" y="204.061" clip-path="url(#SVGID_2_)" fill="#FFFFFF" width="72" height="27"/>
	
		<rect x="7.258" y="204.561" clip-path="url(#SVGID_2_)" fill="none" stroke="#000000" stroke-linecap="round" stroke-linejoin="round" stroke-miterlimit="10" width="72" height="27"/>
	<g clip-path="url(#SVGID_2_)">
		<path d="M21.166,212.953h1.014v4.997l2.705-2.665h1.347l-2.412,2.333l2.547,3.942H25.02l-1.974-3.193l-0.866,0.838v2.355h-1.014
			V212.953z"/>
		<path d="M31.065,215.458c0.416,0.209,0.732,0.479,0.949,0.812c0.21,0.316,0.35,0.686,0.419,1.107
			c0.062,0.289,0.093,0.75,0.093,1.383h-4.564c0.02,0.639,0.168,1.15,0.448,1.536c0.279,0.386,0.711,0.579,1.296,0.579
			c0.546,0,0.982-0.183,1.308-0.548c0.182-0.211,0.311-0.457,0.387-0.735h1.037c-0.027,0.23-0.118,0.487-0.272,0.771
			s-0.327,0.515-0.517,0.694c-0.318,0.312-0.711,0.523-1.18,0.633c-0.252,0.062-0.537,0.094-0.855,0.094
			c-0.776,0-1.434-0.284-1.974-0.853c-0.54-0.568-0.81-1.364-0.81-2.388c0-1.008,0.271-1.826,0.815-2.455
			c0.543-0.629,1.254-0.943,2.131-0.943C30.221,215.145,30.65,215.249,31.065,215.458z M31.443,217.922
			c-0.042-0.457-0.142-0.822-0.296-1.096c-0.287-0.508-0.765-0.762-1.435-0.762c-0.48,0-0.883,0.175-1.208,0.524
			s-0.498,0.794-0.517,1.333H31.443z"/>
		<path d="M37.786,215.285h1.166c-0.148,0.402-0.479,1.321-0.99,2.755c-0.383,1.079-0.703,1.958-0.961,2.639
			c-0.609,1.6-1.038,2.576-1.288,2.927c-0.25,0.352-0.679,0.527-1.288,0.527c-0.148,0-0.263-0.006-0.343-0.018
			c-0.08-0.012-0.178-0.033-0.295-0.064v-0.961c0.183,0.051,0.316,0.082,0.397,0.094c0.082,0.012,0.154,0.018,0.217,0.018
			c0.195,0,0.338-0.032,0.43-0.097c0.092-0.064,0.169-0.144,0.231-0.236c0.019-0.031,0.089-0.191,0.21-0.479
			c0.121-0.289,0.208-0.503,0.263-0.644l-2.32-6.46h1.195l1.682,5.111L37.786,215.285z"/>
		<path d="M40.353,215.285l1.207,4.945l1.225-4.945h1.184l1.23,4.916l1.283-4.916h1.055l-1.822,6.275h-1.096l-1.277-4.857
			l-1.236,4.857h-1.096l-1.811-6.275H40.353z"/>
		<path d="M53.076,215.911c0.555,0.539,0.832,1.331,0.832,2.377c0,1.011-0.245,1.847-0.733,2.506
			c-0.488,0.659-1.247,0.989-2.274,0.989c-0.857,0-1.538-0.292-2.042-0.875c-0.504-0.584-0.756-1.367-0.756-2.351
			c0-1.054,0.266-1.893,0.797-2.518c0.532-0.624,1.245-0.937,2.141-0.937C51.843,215.104,52.521,215.373,53.076,215.911z
			 M52.421,220.082c0.257-0.528,0.385-1.117,0.385-1.765c0-0.585-0.093-1.061-0.278-1.428c-0.293-0.577-0.799-0.866-1.518-0.866
			c-0.638,0-1.101,0.246-1.391,0.737c-0.29,0.492-0.435,1.085-0.435,1.779c0,0.667,0.145,1.223,0.435,1.668
			c0.29,0.444,0.749,0.667,1.379,0.667C51.69,220.875,52.165,220.61,52.421,220.082z"/>
		<path d="M55.232,215.285h1.002v1.084c0.082-0.211,0.283-0.468,0.604-0.771s0.689-0.454,1.107-0.454c0.02,0,0.053,0.002,0.1,0.006
			s0.127,0.012,0.24,0.023v1.113c-0.062-0.012-0.12-0.02-0.173-0.023s-0.11-0.006-0.173-0.006c-0.531,0-0.939,0.171-1.225,0.513
			s-0.428,0.735-0.428,1.181v3.609h-1.055V215.285z"/>
		<path d="M62.647,215.479c0.187,0.117,0.399,0.322,0.636,0.615v-3.17h1.014v8.637h-0.949v-0.873
			c-0.245,0.387-0.535,0.666-0.87,0.838c-0.335,0.172-0.718,0.258-1.15,0.258c-0.697,0-1.3-0.294-1.81-0.882
			s-0.765-1.37-0.765-2.347c0-0.914,0.232-1.706,0.697-2.376c0.465-0.67,1.129-1.005,1.994-1.005
			C61.923,215.174,62.324,215.275,62.647,215.479z M60.293,220.184c0.284,0.453,0.738,0.68,1.364,0.68
			c0.486,0,0.885-0.21,1.198-0.63s0.469-1.022,0.469-1.808c0-0.793-0.161-1.38-0.484-1.761s-0.721-0.571-1.195-0.571
			c-0.528,0-0.957,0.203-1.285,0.609c-0.329,0.406-0.493,1.004-0.493,1.793C59.867,219.168,60.009,219.73,60.293,220.184z"/>
	</g>
	<rect x="87.758" y="204.061" clip-path="url(#SVGID_2_)" fill="#FFFFFF" width="72" height="27"/>
	
		<rect x="88.258" y="204.561" clip-path="url(#SVGID_2_)" fill="none" stroke="#000000" stroke-linecap="round" stroke-linejoin="round" stroke-miterlimit="10" width="72" height="27"/>
	<g clip-path="url(#SVGID_2_)">
		<path d="M106.73,215.911c0.555,0.539,0.832,1.331,0.832,2.377c0,1.011-0.245,1.847-0.733,2.506
			c-0.488,0.659-1.247,0.989-2.274,0.989c-0.857,0-1.538-0.292-2.042-0.875c-0.504-0.584-0.756-1.367-0.756-2.351
			c0-1.054,0.266-1.893,0.797-2.518c0.532-0.624,1.245-0.937,2.141-0.937C105.497,215.104,106.176,215.373,106.73,215.911z
			 M106.076,220.082c0.257-0.528,0.385-1.117,0.385-1.765c0-0.585-0.093-1.061-0.278-1.428c-0.293-0.577-0.799-0.866-1.518-0.866
			c-0.638,0-1.101,0.246-1.391,0.737c-0.29,0.492-0.435,1.085-0.435,1.779c0,0.667,0.145,1.223,0.435,1.668
			c0.29,0.444,0.749,0.667,1.379,0.667C105.345,220.875,105.819,220.61,106.076,220.082z"/>
		<path d="M108.77,215.314h1.031v0.832c0.211-0.285,0.442-0.506,0.693-0.662c0.356-0.234,0.775-0.352,1.257-0.352
			c0.713,0,1.318,0.272,1.815,0.817s0.746,1.323,0.746,2.335c0,1.367-0.359,2.344-1.077,2.93c-0.455,0.371-0.984,0.557-1.588,0.557
			c-0.475,0-0.873-0.104-1.194-0.311c-0.188-0.117-0.398-0.318-0.629-0.604v3.205h-1.055V215.314z M112.738,220.233
			c0.327-0.412,0.491-1.028,0.491-1.849c0-0.5-0.072-0.93-0.218-1.289c-0.274-0.691-0.776-1.037-1.505-1.037
			c-0.733,0-1.235,0.365-1.505,1.096c-0.146,0.391-0.218,0.887-0.218,1.488c0,0.484,0.072,0.896,0.218,1.236
			c0.274,0.648,0.776,0.973,1.505,0.973C112,220.852,112.41,220.646,112.738,220.233z"/>
		<path d="M119.407,215.458c0.416,0.209,0.732,0.479,0.949,0.812c0.21,0.316,0.35,0.686,0.419,1.107
			c0.062,0.289,0.093,0.75,0.093,1.383h-4.564c0.02,0.639,0.168,1.15,0.448,1.536c0.279,0.386,0.711,0.579,1.296,0.579
			c0.546,0,0.982-0.183,1.308-0.548c0.182-0.211,0.311-0.457,0.387-0.735h1.037c-0.027,0.23-0.118,0.487-0.272,0.771
			s-0.327,0.515-0.517,0.694c-0.318,0.312-0.711,0.523-1.18,0.633c-0.252,0.062-0.537,0.094-0.855,0.094
			c-0.776,0-1.434-0.284-1.974-0.853c-0.54-0.568-0.81-1.364-0.81-2.388c0-1.008,0.271-1.826,0.815-2.455
			c0.543-0.629,1.254-0.943,2.131-0.943C118.563,215.145,118.992,215.249,119.407,215.458z M119.785,217.922
			c-0.042-0.457-0.142-0.822-0.296-1.096c-0.287-0.508-0.765-0.762-1.435-0.762c-0.48,0-0.883,0.175-1.208,0.524
			s-0.498,0.794-0.517,1.333H119.785z"/>
		<path d="M122.234,215.285h1.002v1.084c0.082-0.211,0.283-0.468,0.604-0.771s0.689-0.454,1.107-0.454c0.02,0,0.053,0.002,0.1,0.006
			s0.127,0.012,0.24,0.023v1.113c-0.062-0.012-0.12-0.02-0.173-0.023s-0.11-0.006-0.173-0.006c-0.531,0-0.939,0.171-1.225,0.513
			s-0.428,0.735-0.428,1.181v3.609h-1.055V215.285z"/>
		<path d="M129.564,217.763c0.242-0.031,0.404-0.133,0.486-0.304c0.047-0.095,0.07-0.229,0.07-0.406c0-0.36-0.128-0.622-0.383-0.785
			c-0.255-0.163-0.621-0.244-1.097-0.244c-0.55,0-0.939,0.149-1.169,0.447c-0.129,0.165-0.212,0.41-0.251,0.736h-0.984
			c0.02-0.775,0.27-1.315,0.752-1.619s1.041-0.455,1.677-0.455c0.737,0,1.336,0.141,1.797,0.422
			c0.457,0.281,0.685,0.719,0.685,1.312v3.615c0,0.109,0.022,0.197,0.067,0.264s0.14,0.1,0.284,0.1c0.047,0,0.1-0.003,0.158-0.009
			s0.121-0.015,0.188-0.026v0.779c-0.164,0.047-0.289,0.076-0.375,0.088s-0.203,0.018-0.352,0.018c-0.363,0-0.627-0.129-0.791-0.387
			c-0.086-0.137-0.146-0.33-0.182-0.58c-0.215,0.281-0.523,0.525-0.926,0.732s-0.846,0.311-1.33,0.311
			c-0.582,0-1.058-0.177-1.427-0.529c-0.369-0.354-0.554-0.795-0.554-1.326c0-0.581,0.182-1.031,0.545-1.352
			c0.363-0.319,0.84-0.517,1.43-0.591L129.564,217.763z M127.344,220.612c0.223,0.175,0.486,0.263,0.791,0.263
			c0.371,0,0.73-0.086,1.078-0.258c0.586-0.284,0.879-0.75,0.879-1.397v-0.849c-0.129,0.082-0.294,0.151-0.497,0.206
			s-0.401,0.094-0.597,0.117l-0.637,0.082c-0.382,0.051-0.669,0.131-0.862,0.239c-0.326,0.184-0.489,0.476-0.489,0.877
			C127.01,220.197,127.121,220.437,127.344,220.612z"/>
		<path d="M133.086,213.533h1.066v1.752h1.002v0.861h-1.002v4.096c0,0.219,0.074,0.365,0.223,0.439
			c0.082,0.043,0.219,0.064,0.41,0.064c0.051,0,0.105-0.001,0.164-0.004s0.127-0.009,0.205-0.02v0.838
			c-0.121,0.035-0.247,0.061-0.378,0.076s-0.272,0.023-0.425,0.023c-0.492,0-0.826-0.126-1.002-0.378s-0.264-0.579-0.264-0.981
			v-4.154h-0.85v-0.861h0.85V213.533z"/>
		<path d="M140.756,215.911c0.555,0.539,0.832,1.331,0.832,2.377c0,1.011-0.245,1.847-0.733,2.506
			c-0.488,0.659-1.247,0.989-2.274,0.989c-0.857,0-1.538-0.292-2.042-0.875c-0.504-0.584-0.756-1.367-0.756-2.351
			c0-1.054,0.266-1.893,0.797-2.518c0.532-0.624,1.245-0.937,2.141-0.937C139.522,215.104,140.201,215.373,140.756,215.911z
			 M140.101,220.082c0.257-0.528,0.385-1.117,0.385-1.765c0-0.585-0.093-1.061-0.278-1.428c-0.293-0.577-0.799-0.866-1.518-0.866
			c-0.638,0-1.101,0.246-1.391,0.737c-0.29,0.492-0.435,1.085-0.435,1.779c0,0.667,0.145,1.223,0.435,1.668
			c0.29,0.444,0.749,0.667,1.379,0.667C139.37,220.875,139.844,220.61,140.101,220.082z"/>
		<path d="M142.912,215.285h1.002v1.084c0.082-0.211,0.283-0.468,0.604-0.771s0.689-0.454,1.107-0.454c0.02,0,0.053,0.002,0.1,0.006
			s0.127,0.012,0.24,0.023v1.113c-0.062-0.012-0.12-0.02-0.173-0.023s-0.11-0.006-0.173-0.006c-0.531,0-0.939,0.171-1.225,0.513
			s-0.428,0.735-0.428,1.181v3.609h-1.055V215.285z"/>
	</g>
	<rect x="168.758" y="204.061" clip-path="url(#SVGID_2_)" fill="#FFFFFF" width="72" height="27"/>
	
		<rect x="169.258" y="204.561" clip-path="url(#SVGID_2_)" fill="none" stroke="#000000" stroke-linecap="round" stroke-linejoin="round" stroke-miterlimit="10" width="72" height="27"/>
	<g clip-path="url(#SVGID_2_)">
		<path d="M182.853,212.953h1.072v1.195h-1.072V212.953z M182.853,215.314h1.072v6.246h-1.072V215.314z"/>
		<path d="M188.966,215.479c0.187,0.117,0.399,0.322,0.636,0.615v-3.17h1.014v8.637h-0.949v-0.873
			c-0.245,0.387-0.535,0.666-0.87,0.838c-0.335,0.172-0.718,0.258-1.15,0.258c-0.697,0-1.3-0.294-1.81-0.882
			s-0.765-1.37-0.765-2.347c0-0.914,0.232-1.706,0.697-2.376c0.465-0.67,1.129-1.005,1.994-1.005
			C188.243,215.174,188.644,215.275,188.966,215.479z M186.612,220.184c0.284,0.453,0.738,0.68,1.364,0.68
			c0.486,0,0.885-0.21,1.198-0.63s0.469-1.022,0.469-1.808c0-0.793-0.161-1.38-0.484-1.761s-0.721-0.571-1.195-0.571
			c-0.528,0-0.957,0.203-1.285,0.609c-0.329,0.406-0.493,1.004-0.493,1.793C186.187,219.168,186.328,219.73,186.612,220.184z"/>
		<path d="M196.068,215.458c0.416,0.209,0.732,0.479,0.949,0.812c0.21,0.316,0.35,0.686,0.42,1.107
			c0.062,0.289,0.093,0.75,0.093,1.383h-4.564c0.02,0.639,0.169,1.15,0.448,1.536c0.278,0.386,0.711,0.579,1.296,0.579
			c0.546,0,0.982-0.183,1.308-0.548c0.183-0.211,0.312-0.457,0.388-0.735h1.037c-0.027,0.23-0.118,0.487-0.272,0.771
			s-0.326,0.515-0.517,0.694c-0.317,0.312-0.712,0.523-1.181,0.633c-0.252,0.062-0.537,0.094-0.854,0.094
			c-0.776,0-1.435-0.284-1.974-0.853c-0.54-0.568-0.81-1.364-0.81-2.388c0-1.008,0.271-1.826,0.815-2.455
			c0.543-0.629,1.254-0.943,2.131-0.943C195.225,215.145,195.653,215.249,196.068,215.458z M196.446,217.922
			c-0.042-0.457-0.142-0.822-0.296-1.096c-0.287-0.508-0.766-0.762-1.436-0.762c-0.48,0-0.883,0.175-1.209,0.524
			c-0.324,0.35-0.497,0.794-0.517,1.333H196.446z"/>
		<path d="M198.866,215.285h1.002v0.891c0.297-0.367,0.611-0.631,0.943-0.791s0.701-0.24,1.107-0.24
			c0.891,0,1.492,0.311,1.805,0.932c0.172,0.34,0.258,0.826,0.258,1.459v4.025h-1.072v-3.955c0-0.383-0.057-0.691-0.17-0.926
			c-0.188-0.391-0.527-0.586-1.02-0.586c-0.25,0-0.455,0.025-0.615,0.076c-0.289,0.086-0.543,0.258-0.762,0.516
			c-0.176,0.207-0.29,0.421-0.343,0.642s-0.079,0.536-0.079,0.946v3.287h-1.055V215.285z"/>
		<path d="M205.751,213.533h1.066v1.752h1.002v0.861h-1.002v4.096c0,0.219,0.074,0.365,0.223,0.439
			c0.082,0.043,0.219,0.064,0.41,0.064c0.051,0,0.105-0.001,0.164-0.004s0.127-0.009,0.205-0.02v0.838
			c-0.121,0.035-0.247,0.061-0.378,0.076s-0.272,0.023-0.425,0.023c-0.492,0-0.826-0.126-1.002-0.378s-0.264-0.579-0.264-0.981
			v-4.154h-0.85v-0.861h0.85V213.533z"/>
		<path d="M208.874,212.953h1.072v1.195h-1.072V212.953z M208.874,215.314h1.072v6.246h-1.072V215.314z"/>
		<path d="M212.032,213.369c0.246-0.359,0.721-0.539,1.424-0.539c0.066,0,0.135,0.002,0.205,0.006s0.15,0.01,0.24,0.018v0.961
			c-0.11-0.008-0.19-0.013-0.239-0.015c-0.051-0.002-0.097-0.003-0.141-0.003c-0.323,0-0.518,0.083-0.58,0.249
			s-0.095,0.589-0.095,1.269h1.055v0.832h-1.055v5.414h-1.043v-5.414h-0.873v-0.832h0.873v-0.984
			C211.819,213.893,211.896,213.572,212.032,213.369z M214.915,214.148v-1.195h1.055v1.195H214.915z M214.915,215.314h1.055v6.246
			h-1.055V215.314z"/>
		<path d="M221.416,215.458c0.416,0.209,0.732,0.479,0.949,0.812c0.21,0.316,0.35,0.686,0.42,1.107
			c0.062,0.289,0.093,0.75,0.093,1.383h-4.564c0.02,0.639,0.169,1.15,0.448,1.536c0.278,0.386,0.711,0.579,1.296,0.579
			c0.546,0,0.982-0.183,1.308-0.548c0.183-0.211,0.312-0.457,0.388-0.735h1.037c-0.027,0.23-0.118,0.487-0.272,0.771
			s-0.326,0.515-0.517,0.694c-0.317,0.312-0.712,0.523-1.181,0.633c-0.252,0.062-0.537,0.094-0.854,0.094
			c-0.776,0-1.435-0.284-1.974-0.853c-0.54-0.568-0.81-1.364-0.81-2.388c0-1.008,0.271-1.826,0.815-2.455
			c0.543-0.629,1.254-0.943,2.131-0.943C220.572,215.145,221.001,215.249,221.416,215.458z M221.794,217.922
			c-0.042-0.457-0.142-0.822-0.296-1.096c-0.287-0.508-0.766-0.762-1.436-0.762c-0.48,0-0.883,0.175-1.209,0.524
			c-0.324,0.35-0.497,0.794-0.517,1.333H221.794z"/>
		<path d="M224.243,215.285h1.002v1.084c0.082-0.211,0.283-0.468,0.604-0.771s0.689-0.454,1.107-0.454c0.02,0,0.053,0.002,0.1,0.006
			s0.127,0.012,0.24,0.023v1.113c-0.062-0.012-0.12-0.02-0.173-0.023s-0.11-0.006-0.173-0.006c-0.531,0-0.939,0.171-1.225,0.513
			s-0.428,0.735-0.428,1.181v3.609h-1.055V215.285z"/>
	</g>
	<rect x="249.758" y="204.061" clip-path="url(#SVGID_2_)" fill="#FFFFFF" width="72" height="27"/>
	
		<rect x="250.258" y="204.561" clip-path="url(#SVGID_2_)" fill="none" stroke="#000000" stroke-linecap="round" stroke-linejoin="round" stroke-miterlimit="10" width="72" height="27"/>
	<g clip-path="url(#SVGID_2_)">
		<path d="M268.73,215.911c0.555,0.539,0.832,1.331,0.832,2.377c0,1.011-0.244,1.847-0.733,2.506
			c-0.488,0.659-1.247,0.989-2.274,0.989c-0.857,0-1.538-0.292-2.043-0.875c-0.504-0.584-0.756-1.367-0.756-2.351
			c0-1.054,0.266-1.893,0.797-2.518c0.531-0.624,1.245-0.937,2.141-0.937C267.497,215.104,268.176,215.373,268.73,215.911z
			 M268.076,220.082c0.256-0.528,0.385-1.117,0.385-1.765c0-0.585-0.093-1.061-0.278-1.428c-0.294-0.577-0.8-0.866-1.518-0.866
			c-0.638,0-1.101,0.246-1.391,0.737c-0.29,0.492-0.435,1.085-0.435,1.779c0,0.667,0.145,1.223,0.435,1.668
			c0.29,0.444,0.749,0.667,1.379,0.667C267.345,220.875,267.818,220.61,268.076,220.082z"/>
		<path d="M270.77,215.314h1.031v0.832c0.211-0.285,0.442-0.506,0.693-0.662c0.356-0.234,0.775-0.352,1.257-0.352
			c0.713,0,1.317,0.272,1.815,0.817s0.746,1.323,0.746,2.335c0,1.367-0.359,2.344-1.076,2.93c-0.455,0.371-0.984,0.557-1.588,0.557
			c-0.475,0-0.873-0.104-1.195-0.311c-0.188-0.117-0.397-0.318-0.629-0.604v3.205h-1.055V215.314z M274.738,220.233
			c0.326-0.412,0.49-1.028,0.49-1.849c0-0.5-0.072-0.93-0.218-1.289c-0.274-0.691-0.776-1.037-1.505-1.037
			c-0.732,0-1.234,0.365-1.505,1.096c-0.146,0.391-0.218,0.887-0.218,1.488c0,0.484,0.072,0.896,0.218,1.236
			c0.274,0.648,0.776,0.973,1.505,0.973C274,220.852,274.41,220.646,274.738,220.233z"/>
		<path d="M281.407,215.458c0.415,0.209,0.731,0.479,0.949,0.812c0.21,0.316,0.35,0.686,0.419,1.107
			c0.062,0.289,0.094,0.75,0.094,1.383h-4.564c0.02,0.639,0.168,1.15,0.447,1.536s0.711,0.579,1.297,0.579
			c0.547,0,0.982-0.183,1.309-0.548c0.182-0.211,0.311-0.457,0.387-0.735h1.037c-0.027,0.23-0.118,0.487-0.272,0.771
			s-0.327,0.515-0.517,0.694c-0.318,0.312-0.711,0.523-1.18,0.633c-0.252,0.062-0.537,0.094-0.855,0.094
			c-0.776,0-1.434-0.284-1.974-0.853s-0.81-1.364-0.81-2.388c0-1.008,0.271-1.826,0.815-2.455s1.254-0.943,2.132-0.943
			C280.562,215.145,280.992,215.249,281.407,215.458z M281.785,217.922c-0.043-0.457-0.142-0.822-0.297-1.096
			c-0.286-0.508-0.765-0.762-1.435-0.762c-0.48,0-0.884,0.175-1.208,0.524c-0.326,0.35-0.498,0.794-0.518,1.333H281.785z"/>
		<path d="M284.234,215.285h1.002v1.084c0.082-0.211,0.283-0.468,0.604-0.771s0.689-0.454,1.107-0.454c0.02,0,0.053,0.002,0.1,0.006
			s0.127,0.012,0.24,0.023v1.113c-0.062-0.012-0.12-0.02-0.173-0.023s-0.11-0.006-0.173-0.006c-0.531,0-0.939,0.171-1.225,0.513
			s-0.428,0.735-0.428,1.181v3.609h-1.055V215.285z"/>
		<path d="M291.564,217.763c0.242-0.031,0.404-0.133,0.486-0.304c0.047-0.095,0.07-0.229,0.07-0.406c0-0.36-0.128-0.622-0.383-0.785
			c-0.256-0.163-0.621-0.244-1.097-0.244c-0.55,0-0.939,0.149-1.169,0.447c-0.129,0.165-0.213,0.41-0.252,0.736h-0.984
			c0.02-0.775,0.27-1.315,0.752-1.619s1.041-0.455,1.677-0.455c0.737,0,1.337,0.141,1.797,0.422
			c0.456,0.281,0.685,0.719,0.685,1.312v3.615c0,0.109,0.022,0.197,0.067,0.264s0.14,0.1,0.284,0.1c0.047,0,0.1-0.003,0.158-0.009
			s0.121-0.015,0.188-0.026v0.779c-0.164,0.047-0.289,0.076-0.375,0.088s-0.203,0.018-0.352,0.018c-0.363,0-0.627-0.129-0.791-0.387
			c-0.086-0.137-0.146-0.33-0.182-0.58c-0.215,0.281-0.523,0.525-0.926,0.732s-0.846,0.311-1.33,0.311
			c-0.582,0-1.058-0.177-1.427-0.529c-0.369-0.354-0.554-0.795-0.554-1.326c0-0.581,0.182-1.031,0.545-1.352
			c0.363-0.319,0.84-0.517,1.43-0.591L291.564,217.763z M289.344,220.612c0.223,0.175,0.486,0.263,0.791,0.263
			c0.371,0,0.73-0.086,1.078-0.258c0.586-0.284,0.879-0.75,0.879-1.397v-0.849c-0.129,0.082-0.295,0.151-0.497,0.206
			s-0.401,0.094-0.597,0.117l-0.637,0.082c-0.383,0.051-0.67,0.131-0.862,0.239c-0.326,0.184-0.489,0.476-0.489,0.877
			C289.01,220.197,289.121,220.437,289.344,220.612z"/>
		<path d="M295.086,213.533h1.066v1.752h1.002v0.861h-1.002v4.096c0,0.219,0.074,0.365,0.223,0.439
			c0.082,0.043,0.219,0.064,0.41,0.064c0.051,0,0.105-0.001,0.164-0.004s0.127-0.009,0.205-0.02v0.838
			c-0.121,0.035-0.247,0.061-0.378,0.076s-0.272,0.023-0.425,0.023c-0.492,0-0.826-0.126-1.002-0.378s-0.264-0.579-0.264-0.981
			v-4.154h-0.85v-0.861h0.85V213.533z"/>
		<path d="M302.756,215.911c0.555,0.539,0.832,1.331,0.832,2.377c0,1.011-0.244,1.847-0.733,2.506
			c-0.488,0.659-1.247,0.989-2.274,0.989c-0.857,0-1.538-0.292-2.043-0.875c-0.504-0.584-0.756-1.367-0.756-2.351
			c0-1.054,0.266-1.893,0.797-2.518c0.531-0.624,1.245-0.937,2.141-0.937C301.522,215.104,302.201,215.373,302.756,215.911z
			 M302.102,220.082c0.256-0.528,0.385-1.117,0.385-1.765c0-0.585-0.093-1.061-0.278-1.428c-0.294-0.577-0.8-0.866-1.518-0.866
			c-0.638,0-1.101,0.246-1.391,0.737c-0.29,0.492-0.435,1.085-0.435,1.779c0,0.667,0.145,1.223,0.435,1.668
			c0.29,0.444,0.749,0.667,1.379,0.667C301.37,220.875,301.844,220.61,302.102,220.082z"/>
		<path d="M304.912,215.285h1.002v1.084c0.082-0.211,0.283-0.468,0.604-0.771s0.689-0.454,1.107-0.454c0.02,0,0.053,0.002,0.1,0.006
			s0.127,0.012,0.24,0.023v1.113c-0.062-0.012-0.12-0.02-0.173-0.023s-0.11-0.006-0.173-0.006c-0.531,0-0.939,0.171-1.225,0.513
			s-0.428,0.735-0.428,1.181v3.609h-1.055V215.285z"/>
	</g>
	<rect x="330.758" y="204.061" clip-path="url(#SVGID_2_)" fill="#FFFFFF" width="72" height="27"/>
	
		<rect x="331.258" y="204.561" clip-path="url(#SVGID_2_)" fill="none" stroke="#000000" stroke-linecap="round" stroke-linejoin="round" stroke-miterlimit="10" width="72" height="27"/>
	<g clip-path="url(#SVGID_2_)">
		<path d="M353.223,212.953h1.055v8.607h-1.055V212.953z"/>
		<path d="M355.859,212.953h1.072v1.195h-1.072V212.953z M355.859,215.314h1.072v6.246h-1.072V215.314z"/>
		<path d="M358.736,213.533h1.066v1.752h1.002v0.861h-1.002v4.096c0,0.219,0.074,0.365,0.223,0.439
			c0.082,0.043,0.219,0.064,0.41,0.064c0.051,0,0.105-0.001,0.164-0.004s0.127-0.009,0.205-0.02v0.838
			c-0.121,0.035-0.247,0.061-0.378,0.076s-0.272,0.023-0.425,0.023c-0.492,0-0.826-0.126-1.002-0.378s-0.264-0.579-0.264-0.981
			v-4.154h-0.85v-0.861h0.85V213.533z"/>
		<path d="M365.735,215.458c0.415,0.209,0.731,0.479,0.949,0.812c0.21,0.316,0.35,0.686,0.419,1.107
			c0.062,0.289,0.094,0.75,0.094,1.383h-4.564c0.02,0.639,0.168,1.15,0.447,1.536s0.711,0.579,1.297,0.579
			c0.547,0,0.982-0.183,1.309-0.548c0.182-0.211,0.311-0.457,0.387-0.735h1.037c-0.027,0.23-0.118,0.487-0.272,0.771
			s-0.327,0.515-0.517,0.694c-0.318,0.312-0.711,0.523-1.18,0.633c-0.252,0.062-0.537,0.094-0.855,0.094
			c-0.776,0-1.434-0.284-1.974-0.853s-0.81-1.364-0.81-2.388c0-1.008,0.271-1.826,0.815-2.455s1.254-0.943,2.132-0.943
			C364.891,215.145,365.32,215.249,365.735,215.458z M366.113,217.922c-0.043-0.457-0.142-0.822-0.297-1.096
			c-0.286-0.508-0.765-0.762-1.435-0.762c-0.48,0-0.884,0.175-1.208,0.524c-0.326,0.35-0.498,0.794-0.518,1.333H366.113z"/>
		<path d="M368.562,215.285h1.002v1.084c0.082-0.211,0.283-0.468,0.604-0.771s0.689-0.454,1.107-0.454c0.02,0,0.053,0.002,0.1,0.006
			s0.127,0.012,0.24,0.023v1.113c-0.062-0.012-0.12-0.02-0.173-0.023s-0.11-0.006-0.173-0.006c-0.531,0-0.939,0.171-1.225,0.513
			s-0.428,0.735-0.428,1.181v3.609h-1.055V215.285z"/>
		<path d="M375.893,217.763c0.242-0.031,0.404-0.133,0.486-0.304c0.047-0.095,0.07-0.229,0.07-0.406c0-0.36-0.128-0.622-0.383-0.785
			c-0.256-0.163-0.621-0.244-1.097-0.244c-0.55,0-0.939,0.149-1.169,0.447c-0.129,0.165-0.213,0.41-0.252,0.736h-0.984
			c0.02-0.775,0.27-1.315,0.752-1.619s1.041-0.455,1.677-0.455c0.737,0,1.337,0.141,1.797,0.422
			c0.456,0.281,0.685,0.719,0.685,1.312v3.615c0,0.109,0.022,0.197,0.067,0.264s0.14,0.1,0.284,0.1c0.047,0,0.1-0.003,0.158-0.009
			s0.121-0.015,0.188-0.026v0.779c-0.164,0.047-0.289,0.076-0.375,0.088s-0.203,0.018-0.352,0.018c-0.363,0-0.627-0.129-0.791-0.387
			c-0.086-0.137-0.146-0.33-0.182-0.58c-0.215,0.281-0.523,0.525-0.926,0.732s-0.846,0.311-1.33,0.311
			c-0.582,0-1.058-0.177-1.427-0.529c-0.369-0.354-0.554-0.795-0.554-1.326c0-0.581,0.182-1.031,0.545-1.352
			c0.363-0.319,0.84-0.517,1.43-0.591L375.893,217.763z M373.672,220.612c0.223,0.175,0.486,0.263,0.791,0.263
			c0.371,0,0.73-0.086,1.078-0.258c0.586-0.284,0.879-0.75,0.879-1.397v-0.849c-0.129,0.082-0.295,0.151-0.497,0.206
			s-0.401,0.094-0.597,0.117l-0.637,0.082c-0.383,0.051-0.67,0.131-0.862,0.239c-0.326,0.184-0.489,0.476-0.489,0.877
			C373.338,220.197,373.449,220.437,373.672,220.612z"/>
		<path d="M379.232,212.953h1.055v8.607h-1.055V212.953z"/>
	</g>
	
		<line clip-path="url(#SVGID_2_)" fill="none" stroke="#000000" stroke-width="2" stroke-linecap="round" stroke-linejoin="round" stroke-miterlimit="10" x1="204.758" y1="130.169" x2="204.758" y2="191.16"/>
	<polygon clip-path="url(#SVGID_2_)" points="204.758,200.761 208.357,191.16 201.158,191.16 	"/>
	<polygon clip-path="url(#SVGID_2_)" fill="none" stroke="#000000" stroke-width="2" stroke-miterlimit="10" points="
		204.758,200.761 208.357,191.16 201.158,191.16 	"/>
	<path clip-path="url(#SVGID_2_)" fill="#FFFFFF" d="M167.188,97.186h75.141c8.888,0,16.102,7.389,16.102,16.492
		s-7.214,16.491-16.102,16.491h-75.141c-8.888,0-16.101-7.388-16.101-16.491S158.3,97.186,167.188,97.186"/>
	
		<path clip-path="url(#SVGID_2_)" fill="none" stroke="#000000" stroke-linecap="round" stroke-linejoin="round" stroke-miterlimit="10" d="
		M167.188,97.561h75.141c8.888-0.375,16.102,7.014,16.102,16.117s-7.214,16.491-16.102,16.883h-75.141
		c-8.888-0.392-16.101-7.779-16.101-16.883s7.213-16.492,16.101-16.492"/>
	<g clip-path="url(#SVGID_2_)">
		<path d="M190.663,109.07h1.166v7.582h4.318v1.025h-5.484V109.07z"/>
		<path d="M201.072,111.575c0.416,0.209,0.732,0.479,0.949,0.812c0.21,0.316,0.35,0.686,0.42,1.107
			c0.062,0.289,0.093,0.75,0.093,1.383h-4.564c0.02,0.639,0.169,1.15,0.448,1.536c0.278,0.386,0.711,0.579,1.296,0.579
			c0.546,0,0.982-0.183,1.308-0.548c0.183-0.211,0.312-0.457,0.388-0.735h1.037c-0.027,0.23-0.118,0.487-0.272,0.771
			s-0.326,0.515-0.517,0.694c-0.317,0.312-0.712,0.523-1.181,0.633c-0.252,0.062-0.537,0.094-0.854,0.094
			c-0.776,0-1.435-0.284-1.974-0.853c-0.54-0.568-0.81-1.364-0.81-2.388c0-1.008,0.271-1.826,0.815-2.455
			c0.543-0.629,1.254-0.943,2.131-0.943C200.229,111.262,200.657,111.366,201.072,111.575z M201.45,114.039
			c-0.042-0.457-0.142-0.822-0.296-1.096c-0.287-0.508-0.766-0.762-1.436-0.762c-0.48,0-0.883,0.175-1.209,0.524
			c-0.324,0.35-0.497,0.794-0.517,1.333H201.45z"/>
		<path d="M203.272,111.402h1.365l1.441,2.209l1.459-2.209l1.283,0.029l-2.115,3.029l2.209,3.217h-1.348l-1.559-2.355l-1.512,2.355
			h-1.336l2.209-3.217L203.272,111.402z"/>
		<path d="M213.746,111.575c0.416,0.209,0.732,0.479,0.949,0.812c0.21,0.316,0.35,0.686,0.42,1.107
			c0.062,0.289,0.093,0.75,0.093,1.383h-4.564c0.02,0.639,0.169,1.15,0.448,1.536c0.278,0.386,0.711,0.579,1.296,0.579
			c0.546,0,0.982-0.183,1.308-0.548c0.183-0.211,0.312-0.457,0.388-0.735h1.037c-0.027,0.23-0.118,0.487-0.272,0.771
			s-0.326,0.515-0.517,0.694c-0.317,0.312-0.712,0.523-1.181,0.633c-0.252,0.062-0.537,0.094-0.854,0.094
			c-0.776,0-1.435-0.284-1.974-0.853c-0.54-0.568-0.81-1.364-0.81-2.388c0-1.008,0.271-1.826,0.815-2.455
			c0.543-0.629,1.254-0.943,2.131-0.943C212.902,111.262,213.331,111.366,213.746,111.575z M214.124,114.039
			c-0.042-0.457-0.142-0.822-0.296-1.096c-0.287-0.508-0.766-0.762-1.436-0.762c-0.48,0-0.883,0.175-1.209,0.524
			c-0.324,0.35-0.497,0.794-0.517,1.333H214.124z"/>
		<path d="M216.573,111.402h1.002v1.084c0.082-0.211,0.283-0.468,0.604-0.771s0.689-0.454,1.107-0.454c0.02,0,0.053,0.002,0.1,0.006
			s0.127,0.012,0.24,0.023v1.113c-0.062-0.012-0.12-0.02-0.173-0.023s-0.11-0.006-0.173-0.006c-0.531,0-0.939,0.171-1.225,0.513
			s-0.428,0.735-0.428,1.181v3.609h-1.055V111.402z"/>
	</g>
	
		<line clip-path="url(#SVGID_2_)" fill="none" stroke="#000000" stroke-width="2" stroke-linecap="round" stroke-linejoin="round" stroke-miterlimit="10" x1="179.04" y1="130.169" x2="74.669" y2="197.097"/>
	<polygon clip-path="url(#SVGID_2_)" points="66.588,202.279 76.613,200.128 72.726,194.066 	"/>
	<polygon clip-path="url(#SVGID_2_)" fill="none" stroke="#000000" stroke-width="2" stroke-miterlimit="10" points="
		66.588,202.279 76.613,200.128 72.726,194.066 	"/>
	
		<line clip-path="url(#SVGID_2_)" fill="none" stroke="#000000" stroke-width="2" stroke-linecap="round" stroke-linejoin="round" stroke-miterlimit="10" x1="191.898" y1="130.169" x2="142.216" y2="193.888"/>
	<polygon clip-path="url(#SVGID_2_)" points="136.313,201.458 145.055,196.102 139.377,191.674 	"/>
	<polygon clip-path="url(#SVGID_2_)" fill="none" stroke="#000000" stroke-width="2" stroke-miterlimit="10" points="
		136.313,201.458 145.055,196.102 139.377,191.674 	"/>
	
		<line clip-path="url(#SVGID_2_)" fill="none" stroke="#000000" stroke-width="2" stroke-linecap="round" stroke-linejoin="round" stroke-miterlimit="10" x1="217.617" y1="130.169" x2="267.3" y2="193.888"/>
	<polygon clip-path="url(#SVGID_2_)" points="273.202,201.458 270.139,191.674 264.46,196.102 	"/>
	<polygon clip-path="url(#SVGID_2_)" fill="none" stroke="#000000" stroke-width="2" stroke-miterlimit="10" points="
		273.202,201.458 270.139,191.674 264.46,196.102 	"/>
	
		<line clip-path="url(#SVGID_2_)" fill="none" stroke="#000000" stroke-width="2" stroke-linecap="round" stroke-linejoin="round" stroke-miterlimit="10" x1="230.476" y1="130.169" x2="334.846" y2="197.097"/>
	<polygon clip-path="url(#SVGID_2_)" points="342.928,202.279 336.789,194.066 332.903,200.128 	"/>
	<polygon clip-path="url(#SVGID_2_)" fill="none" stroke="#000000" stroke-width="2" stroke-miterlimit="10" points="
		342.928,202.279 336.789,194.066 332.903,200.128 	"/>
	<polygon clip-path="url(#SVGID_2_)" fill="#CBFCFF" points="119.613,152.826 125.013,147.427 284.502,147.427 289.902,152.826 
		289.902,169.026 284.502,174.427 125.013,174.427 119.613,169.026 	"/>
	
		<polygon clip-path="url(#SVGID_2_)" fill="none" stroke="#000000" stroke-linecap="round" stroke-linejoin="round" stroke-miterlimit="10" points="
		120.258,152.826 125.014,147.561 284.502,147.561 290.258,152.826 290.258,169.026 284.502,174.561 125.014,174.561 
		120.258,169.026 	"/>
	<g clip-path="url(#SVGID_2_)">
		<path d="M172.065,158.824c0.416,0.209,0.732,0.479,0.949,0.812c0.21,0.316,0.35,0.686,0.419,1.107
			c0.062,0.289,0.093,0.75,0.093,1.383h-4.564c0.02,0.639,0.168,1.15,0.448,1.536c0.279,0.386,0.711,0.579,1.296,0.579
			c0.546,0,0.982-0.183,1.308-0.548c0.182-0.211,0.311-0.457,0.387-0.735h1.037c-0.027,0.23-0.118,0.487-0.272,0.771
			s-0.327,0.515-0.517,0.694c-0.318,0.312-0.711,0.523-1.18,0.633c-0.252,0.062-0.537,0.094-0.855,0.094
			c-0.776,0-1.434-0.284-1.974-0.853c-0.54-0.568-0.81-1.364-0.81-2.388c0-1.008,0.271-1.826,0.815-2.455
			c0.543-0.629,1.254-0.943,2.131-0.943C171.221,158.511,171.65,158.615,172.065,158.824z M172.443,161.288
			c-0.042-0.457-0.142-0.822-0.296-1.096c-0.287-0.508-0.765-0.762-1.435-0.762c-0.48,0-0.883,0.175-1.208,0.524
			s-0.498,0.794-0.517,1.333H172.443z"/>
		<path d="M174.863,158.651h1.043v0.891c0.25-0.309,0.477-0.533,0.68-0.674c0.348-0.238,0.742-0.357,1.184-0.357
			c0.5,0,0.902,0.123,1.207,0.369c0.172,0.141,0.328,0.348,0.469,0.621c0.234-0.336,0.51-0.585,0.826-0.747s0.672-0.243,1.066-0.243
			c0.844,0,1.418,0.305,1.723,0.914c0.164,0.328,0.246,0.77,0.246,1.324v4.178h-1.096v-4.359c0-0.418-0.104-0.705-0.313-0.861
			s-0.464-0.234-0.765-0.234c-0.414,0-0.771,0.139-1.069,0.416s-0.448,0.74-0.448,1.389v3.65h-1.072v-4.096
			c0-0.426-0.051-0.736-0.152-0.932c-0.16-0.293-0.459-0.439-0.896-0.439c-0.398,0-0.761,0.154-1.087,0.463
			s-0.489,0.867-0.489,1.676v3.328h-1.055V158.651z"/>
		<path d="M184.859,156.319h1.072v1.195h-1.072V156.319z M184.859,158.681h1.072v6.246h-1.072V158.681z"/>
		<path d="M187.736,156.899h1.066v1.752h1.002v0.861h-1.002v4.096c0,0.219,0.074,0.365,0.223,0.439
			c0.082,0.043,0.219,0.064,0.41,0.064c0.051,0,0.105-0.001,0.164-0.004s0.127-0.009,0.205-0.02v0.838
			c-0.121,0.035-0.247,0.061-0.378,0.076s-0.272,0.023-0.425,0.023c-0.492,0-0.826-0.126-1.002-0.378s-0.264-0.579-0.264-0.981
			v-4.154h-0.85v-0.861h0.85V156.899z"/>
		<path d="M197.258,156.319v1.025h-2.9v7.582h-1.178v-7.582h-2.9v-1.025H197.258z"/>
		<path d="M201.416,159.277c0.555,0.539,0.832,1.331,0.832,2.377c0,1.011-0.244,1.847-0.732,2.506s-1.247,0.989-2.275,0.989
			c-0.857,0-1.537-0.292-2.042-0.875c-0.505-0.584-0.757-1.367-0.757-2.351c0-1.054,0.266-1.893,0.797-2.518
			c0.532-0.624,1.246-0.937,2.142-0.937C200.184,158.47,200.861,158.739,201.416,159.277z M200.762,163.448
			c0.257-0.528,0.385-1.117,0.385-1.765c0-0.585-0.092-1.061-0.277-1.428c-0.294-0.577-0.8-0.866-1.518-0.866
			c-0.639,0-1.102,0.246-1.391,0.737c-0.29,0.492-0.436,1.085-0.436,1.779c0,0.667,0.146,1.223,0.436,1.668
			c0.289,0.444,0.748,0.667,1.379,0.667C200.031,164.241,200.505,163.977,200.762,163.448z"/>
		<path d="M203.52,156.319h1.014v4.997l2.705-2.665h1.348l-2.412,2.333l2.547,3.942h-1.348l-1.973-3.193l-0.867,0.838v2.355h-1.014
			V156.319z"/>
		<path d="M213.42,158.824c0.415,0.209,0.731,0.479,0.949,0.812c0.209,0.316,0.35,0.686,0.419,1.107
			c0.062,0.289,0.093,0.75,0.093,1.383h-4.564c0.02,0.639,0.169,1.15,0.448,1.536c0.278,0.386,0.711,0.579,1.296,0.579
			c0.547,0,0.982-0.183,1.309-0.548c0.182-0.211,0.311-0.457,0.387-0.735h1.037c-0.027,0.23-0.117,0.487-0.271,0.771
			s-0.327,0.515-0.518,0.694c-0.317,0.312-0.711,0.523-1.18,0.633c-0.252,0.062-0.537,0.094-0.855,0.094
			c-0.775,0-1.434-0.284-1.973-0.853c-0.541-0.568-0.811-1.364-0.811-2.388c0-1.008,0.271-1.826,0.816-2.455
			c0.543-0.629,1.254-0.943,2.131-0.943C212.575,158.511,213.004,158.615,213.42,158.824z M213.797,161.288
			c-0.042-0.457-0.141-0.822-0.296-1.096c-0.286-0.508-0.765-0.762-1.435-0.762c-0.48,0-0.884,0.175-1.209,0.524
			s-0.498,0.794-0.518,1.333H213.797z"/>
		<path d="M216.217,158.651h1.002v0.891c0.297-0.367,0.611-0.631,0.943-0.791s0.701-0.24,1.107-0.24
			c0.891,0,1.492,0.311,1.805,0.932c0.172,0.34,0.258,0.826,0.258,1.459v4.025h-1.072v-3.955c0-0.383-0.057-0.691-0.17-0.926
			c-0.188-0.391-0.527-0.586-1.02-0.586c-0.25,0-0.455,0.025-0.615,0.076c-0.289,0.086-0.543,0.258-0.762,0.516
			c-0.176,0.207-0.289,0.421-0.342,0.642s-0.08,0.536-0.08,0.946v3.287h-1.055V158.651z"/>
		<path d="M225.668,156.179c-0.613,1.191-1.012,2.068-1.195,2.631c-0.277,0.855-0.416,1.844-0.416,2.965
			c0,1.133,0.158,2.168,0.475,3.105c0.195,0.578,0.58,1.41,1.154,2.496h-0.709c-0.57-0.891-0.924-1.459-1.061-1.705
			s-0.285-0.58-0.445-1.002c-0.219-0.578-0.371-1.195-0.457-1.852c-0.043-0.34-0.064-0.664-0.064-0.973
			c0-1.156,0.182-2.186,0.545-3.088c0.23-0.574,0.711-1.434,1.441-2.578H225.668z"/>
		<path d="M227.496,163.638h1.225v1.289h-1.225V163.638z M231.492,164.927v-1.289h1.225v1.289H231.492z M235.488,164.927v-1.289
			h1.225v1.289H235.488z"/>
		<path d="M238.529,167.376c0.621-1.211,1.021-2.094,1.201-2.648c0.273-0.84,0.41-1.824,0.41-2.953s-0.158-2.162-0.475-3.1
			c-0.195-0.578-0.58-1.41-1.154-2.496h0.709c0.602,0.961,0.967,1.554,1.094,1.778s0.264,0.534,0.412,0.929
			c0.188,0.488,0.322,0.971,0.402,1.447s0.119,0.936,0.119,1.377c0,1.156-0.184,2.188-0.551,3.094
			c-0.23,0.582-0.709,1.439-1.436,2.572H238.529z"/>
	</g>
	
		<line clip-path="url(#SVGID_2_)" fill="none" stroke="#000000" stroke-width="2" stroke-linecap="round" stroke-linejoin="round" stroke-miterlimit="10" x1="204.758" y1="36.436" x2="204.758" y2="84.285"/>
	<polygon clip-path="url(#SVGID_2_)" points="204.758,93.886 208.357,84.285 201.158,84.285 	"/>
	<polygon clip-path="url(#SVGID_2_)" fill="none" stroke="#000000" stroke-width="2" stroke-miterlimit="10" points="
		204.758,93.886 208.357,84.285 201.158,84.285 	"/>
	<polygon clip-path="url(#SVGID_2_)" fill="#CBFCFF" points="119.613,55.592 125.013,50.192 284.502,50.192 289.902,55.592 
		289.902,71.792 284.502,77.191 125.013,77.191 119.613,71.792 	"/>
	
		<polygon clip-path="url(#SVGID_2_)" fill="none" stroke="#000000" stroke-linecap="round" stroke-linejoin="round" stroke-miterlimit="10" points="
		120.258,55.592 125.014,50.561 284.502,50.561 290.258,55.592 290.258,71.792 284.502,77.561 125.014,77.561 120.258,71.792 	"/>
	<g clip-path="url(#SVGID_2_)">
		<path d="M158.002,61.668c0.198,0.137,0.401,0.336,0.607,0.598v-0.791h0.973v5.707c0,0.797-0.117,1.426-0.351,1.887
			c-0.436,0.852-1.259,1.277-2.47,1.277c-0.674,0-1.24-0.151-1.7-0.454s-0.716-0.776-0.771-1.421h1.072
			c0.05,0.281,0.151,0.498,0.303,0.65c0.237,0.234,0.61,0.352,1.119,0.352c0.804,0,1.331-0.285,1.579-0.855
			c0.148-0.336,0.216-0.936,0.204-1.799c-0.21,0.32-0.463,0.559-0.759,0.715c-0.295,0.156-0.687,0.234-1.173,0.234
			c-0.677,0-1.27-0.241-1.777-0.724s-0.762-1.28-0.762-2.394c0-1.051,0.256-1.871,0.768-2.461s1.129-0.885,1.853-0.885
			C157.208,61.305,157.637,61.426,158.002,61.668z M158.131,62.799c-0.319-0.375-0.725-0.562-1.218-0.562
			c-0.739,0-1.244,0.348-1.516,1.043c-0.144,0.371-0.216,0.857-0.216,1.459c0,0.707,0.143,1.245,0.429,1.614
			c0.285,0.369,0.669,0.554,1.151,0.554c0.753,0,1.284-0.342,1.591-1.025c0.171-0.387,0.256-0.838,0.256-1.354
			C158.609,63.75,158.45,63.174,158.131,62.799z"/>
		<path d="M165.063,61.589c0.416,0.209,0.732,0.479,0.949,0.812c0.21,0.316,0.35,0.686,0.419,1.107
			c0.062,0.289,0.093,0.75,0.093,1.383h-4.564c0.02,0.639,0.168,1.15,0.448,1.536c0.279,0.386,0.711,0.579,1.296,0.579
			c0.546,0,0.982-0.183,1.308-0.548c0.182-0.211,0.311-0.457,0.387-0.735h1.037c-0.027,0.23-0.118,0.487-0.272,0.771
			s-0.327,0.515-0.517,0.694c-0.318,0.312-0.711,0.523-1.18,0.633c-0.252,0.062-0.537,0.094-0.855,0.094
			c-0.776,0-1.434-0.284-1.974-0.853c-0.54-0.568-0.81-1.364-0.81-2.388c0-1.008,0.271-1.826,0.815-2.455
			c0.543-0.629,1.254-0.943,2.131-0.943C164.219,61.275,164.648,61.38,165.063,61.589z M165.441,64.053
			c-0.042-0.457-0.142-0.822-0.296-1.096c-0.287-0.508-0.765-0.762-1.435-0.762c-0.48,0-0.883,0.175-1.208,0.524
			s-0.498,0.794-0.517,1.333H165.441z"/>
		<path d="M168.072,59.664h1.066v1.752h1.002v0.861h-1.002v4.096c0,0.219,0.074,0.365,0.223,0.439
			c0.082,0.043,0.219,0.064,0.41,0.064c0.051,0,0.105-0.001,0.164-0.004s0.127-0.009,0.205-0.02v0.838
			c-0.121,0.035-0.247,0.061-0.378,0.076s-0.272,0.023-0.425,0.023c-0.492,0-0.826-0.126-1.002-0.378s-0.264-0.579-0.264-0.981
			v-4.154h-0.85v-0.861h0.85V59.664z"/>
		<path d="M171.336,59.084h1.374l4.292,6.954v-6.954h1.113v8.607h-1.31l-4.356-6.946v6.946h-1.113V59.084z"/>
		<path d="M183.737,61.589c0.416,0.209,0.732,0.479,0.949,0.812c0.21,0.316,0.35,0.686,0.419,1.107
			c0.062,0.289,0.093,0.75,0.093,1.383h-4.564c0.02,0.639,0.168,1.15,0.448,1.536c0.279,0.386,0.711,0.579,1.296,0.579
			c0.546,0,0.982-0.183,1.308-0.548c0.182-0.211,0.311-0.457,0.387-0.735h1.037c-0.027,0.23-0.118,0.487-0.272,0.771
			s-0.327,0.515-0.517,0.694c-0.318,0.312-0.711,0.523-1.18,0.633c-0.252,0.062-0.537,0.094-0.855,0.094
			c-0.776,0-1.434-0.284-1.974-0.853c-0.54-0.568-0.81-1.364-0.81-2.388c0-1.008,0.271-1.826,0.815-2.455
			c0.543-0.629,1.254-0.943,2.131-0.943C182.893,61.275,183.322,61.38,183.737,61.589z M184.115,64.053
			c-0.042-0.457-0.142-0.822-0.296-1.096c-0.287-0.508-0.765-0.762-1.435-0.762c-0.48,0-0.883,0.175-1.208,0.524
			s-0.498,0.794-0.517,1.333H184.115z"/>
		<path d="M185.938,61.416h1.365l1.441,2.209l1.459-2.209l1.283,0.029l-2.115,3.029l2.209,3.217h-1.348l-1.559-2.355l-1.512,2.355
			h-1.336l2.209-3.217L185.938,61.416z"/>
		<path d="M192.746,59.664h1.066v1.752h1.002v0.861h-1.002v4.096c0,0.219,0.074,0.365,0.223,0.439
			c0.082,0.043,0.219,0.064,0.41,0.064c0.051,0,0.105-0.001,0.164-0.004s0.127-0.009,0.205-0.02v0.838
			c-0.121,0.035-0.247,0.061-0.378,0.076s-0.272,0.023-0.425,0.023c-0.492,0-0.826-0.126-1.002-0.378s-0.264-0.579-0.264-0.981
			v-4.154h-0.85v-0.861h0.85V59.664z"/>
		<path d="M202.098,59.711c0.594,0.574,0.925,1.227,0.99,1.957h-1.137c-0.127-0.555-0.379-0.994-0.757-1.318
			s-0.908-0.486-1.591-0.486c-0.832,0-1.505,0.298-2.018,0.895c-0.512,0.596-0.768,1.51-0.768,2.741c0,1.009,0.23,1.827,0.693,2.454
			c0.463,0.628,1.152,0.941,2.069,0.941c0.845,0,1.487-0.33,1.929-0.99c0.234-0.348,0.408-0.805,0.523-1.371h1.137
			c-0.101,0.906-0.433,1.666-0.996,2.279c-0.676,0.738-1.587,1.107-2.734,1.107c-0.988,0-1.818-0.303-2.49-0.909
			c-0.885-0.801-1.326-2.038-1.326-3.711c0-1.271,0.332-2.312,0.996-3.125c0.719-0.884,1.709-1.325,2.971-1.325
			C200.667,58.85,201.503,59.137,202.098,59.711z"/>
		<path d="M204.535,59.055h1.055v3.211c0.25-0.316,0.475-0.539,0.674-0.668c0.34-0.223,0.764-0.334,1.271-0.334
			c0.91,0,1.527,0.318,1.852,0.955c0.176,0.348,0.264,0.83,0.264,1.447v4.025h-1.084v-3.955c0-0.461-0.059-0.799-0.176-1.014
			c-0.191-0.344-0.551-0.516-1.078-0.516c-0.438,0-0.834,0.15-1.189,0.451s-0.533,0.869-0.533,1.705v3.328h-1.055V59.055z"/>
		<path d="M214.572,63.894c0.242-0.031,0.404-0.133,0.486-0.304c0.047-0.095,0.07-0.229,0.07-0.406c0-0.36-0.128-0.622-0.383-0.785
			c-0.256-0.163-0.621-0.244-1.097-0.244c-0.55,0-0.939,0.149-1.169,0.447c-0.129,0.165-0.213,0.41-0.252,0.736h-0.984
			c0.02-0.775,0.27-1.315,0.752-1.619s1.041-0.455,1.677-0.455c0.737,0,1.337,0.141,1.797,0.422
			c0.456,0.281,0.685,0.719,0.685,1.312v3.615c0,0.109,0.022,0.197,0.067,0.264s0.14,0.1,0.284,0.1c0.047,0,0.1-0.003,0.158-0.009
			s0.121-0.015,0.188-0.026v0.779c-0.164,0.047-0.289,0.076-0.375,0.088s-0.203,0.018-0.352,0.018c-0.363,0-0.627-0.129-0.791-0.387
			c-0.086-0.137-0.146-0.33-0.182-0.58c-0.215,0.281-0.523,0.525-0.926,0.732s-0.846,0.311-1.33,0.311
			c-0.582,0-1.058-0.177-1.427-0.529c-0.369-0.354-0.554-0.795-0.554-1.326c0-0.581,0.182-1.031,0.545-1.352
			c0.363-0.319,0.84-0.517,1.43-0.591L214.572,63.894z M212.352,66.743c0.223,0.175,0.486,0.263,0.791,0.263
			c0.371,0,0.73-0.086,1.078-0.258c0.586-0.284,0.879-0.75,0.879-1.397v-0.849c-0.129,0.082-0.295,0.151-0.497,0.206
			s-0.401,0.094-0.597,0.117l-0.637,0.082c-0.383,0.051-0.67,0.131-0.862,0.239c-0.326,0.184-0.489,0.476-0.489,0.877
			C212.018,66.328,212.129,66.567,212.352,66.743z"/>
		<path d="M217.912,61.416h1.002V62.5c0.082-0.211,0.283-0.468,0.604-0.771s0.689-0.454,1.107-0.454c0.02,0,0.053,0.002,0.1,0.006
			s0.127,0.012,0.24,0.023v1.113c-0.062-0.012-0.12-0.02-0.173-0.023s-0.11-0.006-0.173-0.006c-0.531,0-0.939,0.171-1.225,0.513
			s-0.428,0.735-0.428,1.181v3.609h-1.055V61.416z"/>
		<path d="M225.242,63.894c0.242-0.031,0.404-0.133,0.486-0.304c0.047-0.095,0.07-0.229,0.07-0.406c0-0.36-0.128-0.622-0.383-0.785
			c-0.256-0.163-0.621-0.244-1.097-0.244c-0.55,0-0.939,0.149-1.169,0.447c-0.129,0.165-0.213,0.41-0.252,0.736h-0.984
			c0.02-0.775,0.27-1.315,0.752-1.619s1.041-0.455,1.677-0.455c0.737,0,1.337,0.141,1.797,0.422
			c0.456,0.281,0.685,0.719,0.685,1.312v3.615c0,0.109,0.022,0.197,0.067,0.264s0.14,0.1,0.284,0.1c0.047,0,0.1-0.003,0.158-0.009
			s0.121-0.015,0.188-0.026v0.779c-0.164,0.047-0.289,0.076-0.375,0.088s-0.203,0.018-0.352,0.018c-0.363,0-0.627-0.129-0.791-0.387
			c-0.086-0.137-0.146-0.33-0.182-0.58c-0.215,0.281-0.523,0.525-0.926,0.732s-0.846,0.311-1.33,0.311
			c-0.582,0-1.058-0.177-1.427-0.529c-0.369-0.354-0.554-0.795-0.554-1.326c0-0.581,0.182-1.031,0.545-1.352
			c0.363-0.319,0.84-0.517,1.43-0.591L225.242,63.894z M223.021,66.743c0.223,0.175,0.486,0.263,0.791,0.263
			c0.371,0,0.73-0.086,1.078-0.258c0.586-0.284,0.879-0.75,0.879-1.397v-0.849c-0.129,0.082-0.295,0.151-0.497,0.206
			s-0.401,0.094-0.597,0.117l-0.637,0.082c-0.383,0.051-0.67,0.131-0.862,0.239c-0.326,0.184-0.489,0.476-0.489,0.877
			C222.688,66.328,222.799,66.567,223.021,66.743z"/>
		<path d="M232.698,61.75c0.443,0.344,0.71,0.936,0.8,1.775h-1.025c-0.062-0.387-0.205-0.708-0.428-0.964s-0.58-0.384-1.072-0.384
			c-0.672,0-1.152,0.328-1.441,0.983c-0.188,0.425-0.281,0.95-0.281,1.574c0,0.628,0.133,1.156,0.398,1.586
			c0.266,0.429,0.684,0.644,1.254,0.644c0.438,0,0.784-0.133,1.04-0.399s0.433-0.632,0.53-1.095h1.025
			c-0.117,0.832-0.41,1.44-0.879,1.825s-1.068,0.577-1.799,0.577c-0.82,0-1.475-0.3-1.963-0.899s-0.732-1.349-0.732-2.247
			c0-1.102,0.268-1.959,0.803-2.572s1.217-0.92,2.045-0.92C231.68,61.234,232.255,61.406,232.698,61.75z"/>
		<path d="M234.764,59.664h1.066v1.752h1.002v0.861h-1.002v4.096c0,0.219,0.074,0.365,0.223,0.439
			c0.082,0.043,0.219,0.064,0.41,0.064c0.051,0,0.105-0.001,0.164-0.004s0.127-0.009,0.205-0.02v0.838
			c-0.121,0.035-0.247,0.061-0.378,0.076s-0.272,0.023-0.425,0.023c-0.492,0-0.826-0.126-1.002-0.378s-0.264-0.579-0.264-0.981
			v-4.154h-0.85v-0.861h0.85V59.664z"/>
		<path d="M241.763,61.589c0.415,0.209,0.731,0.479,0.949,0.812c0.21,0.316,0.35,0.686,0.419,1.107
			c0.062,0.289,0.094,0.75,0.094,1.383h-4.564c0.02,0.639,0.168,1.15,0.447,1.536s0.711,0.579,1.297,0.579
			c0.547,0,0.982-0.183,1.309-0.548c0.182-0.211,0.311-0.457,0.387-0.735h1.037c-0.027,0.23-0.118,0.487-0.272,0.771
			s-0.327,0.515-0.517,0.694c-0.318,0.312-0.711,0.523-1.18,0.633c-0.252,0.062-0.537,0.094-0.855,0.094
			c-0.776,0-1.434-0.284-1.974-0.853s-0.81-1.364-0.81-2.388c0-1.008,0.271-1.826,0.815-2.455s1.254-0.943,2.132-0.943
			C240.918,61.275,241.348,61.38,241.763,61.589z M242.141,64.053c-0.043-0.457-0.142-0.822-0.297-1.096
			c-0.286-0.508-0.765-0.762-1.435-0.762c-0.48,0-0.884,0.175-1.208,0.524c-0.326,0.35-0.498,0.794-0.518,1.333H242.141z"/>
		<path d="M244.59,61.416h1.002V62.5c0.082-0.211,0.283-0.468,0.604-0.771s0.689-0.454,1.107-0.454c0.02,0,0.053,0.002,0.1,0.006
			s0.127,0.012,0.24,0.023v1.113c-0.062-0.012-0.12-0.02-0.173-0.023s-0.11-0.006-0.173-0.006c-0.531,0-0.939,0.171-1.225,0.513
			s-0.428,0.735-0.428,1.181v3.609h-1.055V61.416z"/>
		<path d="M251.334,58.943c-0.613,1.191-1.012,2.068-1.195,2.631c-0.277,0.855-0.416,1.844-0.416,2.965
			c0,1.133,0.158,2.168,0.475,3.105c0.195,0.578,0.58,1.41,1.154,2.496h-0.709c-0.57-0.891-0.924-1.459-1.061-1.705
			s-0.285-0.58-0.445-1.002c-0.219-0.578-0.371-1.195-0.457-1.852c-0.043-0.34-0.064-0.664-0.064-0.973
			c0-1.156,0.182-2.186,0.545-3.088c0.23-0.574,0.711-1.434,1.441-2.578H251.334z"/>
		<path d="M252.195,70.141c0.621-1.211,1.021-2.094,1.201-2.648c0.273-0.84,0.41-1.824,0.41-2.953s-0.158-2.162-0.475-3.1
			c-0.195-0.578-0.58-1.41-1.154-2.496h0.709c0.602,0.961,0.966,1.554,1.093,1.778s0.265,0.534,0.413,0.929
			c0.188,0.488,0.321,0.971,0.401,1.447s0.12,0.936,0.12,1.377c0,1.156-0.184,2.188-0.551,3.094
			c-0.23,0.582-0.709,1.439-1.436,2.572H252.195z"/>
	</g>
</g>
</svg>
